<svg fill="none" height="300" viewBox="0 0 100 100" width="300" xmlns="http://www.w3.org/2000/svg" xmlns:xlink="http://www.w3.org/1999/xlink" version="1.1" xmlns:svgjs="http://svgjs.dev/svgjs"><g width="100%" height="100%" transform="matrix(1,0,0,1,0,0)"><linearGradient id="paint0_linear_937_569" gradientUnits="userSpaceOnUse" x1="8.333" x2="91.722" y1="8.277" y2="91.611"><stop offset="0" stop-color="#0074ff"/><stop offset="1" stop-color="#6d4ee9"/></linearGradient><g clip-rule="evenodd" fill="url(#paint0_linear_937_569)" fill-rule="evenodd"><path d="m52.0833 16.6665v-6.3058c0-1.15062-.9328-2.08336-2.0834-2.08336s-2.0833.93274-2.0833 2.08336v6.3058h-20.8333v-6.3058c0-1.15062-.9328-2.08336-2.0834-2.08336s-2.0833.93274-2.0833 2.08336v6.3058h-2.0833c-6.9036 0-12.50005 5.5964-12.50005 12.5v50c0 6.9036 5.59645 12.5 12.50005 12.5h36.6074c-6.6007-4.4271-10.9452-11.9573-10.9452-20.5022 0-13.6243 11.0446-24.6689 24.6689-24.6689 8.5449 0 16.0751 4.3445 20.5022 10.9452v-28.2741c0-6.9036-5.5964-12.5-12.5-12.5h-2.0833v-6.3058c0-1.15062-.9328-2.08336-2.0834-2.08336s-2.0833.93274-2.0833 2.08336v6.3058zm0 0v8.1389c0 1.1506-.9328 2.0833-2.0834 2.0833s-2.0833-.9327-2.0833-2.0833v-8.1389zm20.8333 0h4.1667v8.1389c0 1.1506-.9328 2.0833-2.0834 2.0833s-2.0833-.9327-2.0833-2.0833zm-50 0v8.1389c0 1.1506.9327 2.0833 2.0833 2.0833s2.0834-.9327 2.0834-2.0833v-8.1389zm.9398 25.3821c2.0711 0 3.75-1.6789 3.75-3.75s-1.6789-3.75-3.75-3.75c-2.071 0-3.75 1.6789-3.75 3.75s1.679 3.75 3.75 3.75zm21.6669-3.75c0 2.0711-1.6789 3.75-3.75 3.75s-3.75-1.6789-3.75-3.75 1.6789-3.75 3.75-3.75 3.75 1.6789 3.75 3.75zm14.1664 3.75c2.071 0 3.75-1.6789 3.75-3.75s-1.679-3.75-3.75-3.75c-2.0711 0-3.75 1.6789-3.75 3.75s1.6789 3.75 3.75 3.75zm21.6668-3.75c0 2.0711-1.6789 3.75-3.75 3.75-2.071 0-3.75-1.6789-3.75-3.75s1.679-3.75 3.75-3.75c2.0711 0 3.75 1.6789 3.75 3.75zm-57.5001 22.3089c2.0711 0 3.75-1.6789 3.75-3.75 0-2.071-1.6789-3.75-3.75-3.75-2.071 0-3.75 1.679-3.75 3.75 0 2.0711 1.679 3.75 3.75 3.75zm21.6669-3.75c0 2.0711-1.6789 3.75-3.75 3.75s-3.75-1.6789-3.75-3.75c0-2.071 1.6789-3.75 3.75-3.75s3.75 1.679 3.75 3.75zm-21.6669 22.309c2.0711 0 3.75-1.6789 3.75-3.75s-1.6789-3.75-3.75-3.75c-2.071 0-3.75 1.6789-3.75 3.75s1.679 3.75 3.75 3.75zm21.6669-3.75c0 2.0711-1.6789 3.75-3.75 3.75s-3.75-1.6789-3.75-3.75 1.6789-3.75 3.75-3.75 3.75 1.6789 3.75 3.75z" fill="#1c4584" data-original-color="paint0_linear_937_569" stroke="none" stroke-opacity="1" fill-opacity="1"/><path d="m91.6666 71.1643c0 11.323-9.1792 20.5022-20.5022 20.5022-11.3231 0-20.5022-9.1792-20.5022-20.5022 0-11.3231 9.1791-20.5022 20.5022-20.5022 11.323 0 20.5022 9.1791 20.5022 20.5022zm-9.886-7.4837c.8136.8136.8136 2.1327 0 2.9463l-12.0212 12.0211c-.5085.5085-1.2144.6992-1.871.5721-.1567-.0304-.3106-.0788-.4584-.1454-.2238-.1007-.4335-.243-.6173-.4268l-6.1267-6.1267c-.8136-.8136-.8136-2.1327 0-2.9463s2.1327-.8136 2.9463 0l4.6538 4.6539 10.5482-10.5482c.8136-.8136 2.1327-.8136 2.9463 0z" fill="#1c4584" data-original-color="paint0_linear_937_569" stroke="none" stroke-opacity="1" fill-opacity="1"/></g></g></svg>