<svg id="Layer_1" viewBox="0 0 512 512" xmlns="http://www.w3.org/2000/svg" xmlns:xlink="http://www.w3.org/1999/xlink" data-name="Layer 1" width="300" height="300" version="1.1" xmlns:svgjs="http://svgjs.dev/svgjs"><g width="100%" height="100%" transform="matrix(1,0,0,1,0,0)"><linearGradient id="linear-gradient" gradientUnits="userSpaceOnUse" x1="256" x2="256" y1="501.34" y2="10.66"><stop offset="0" stop-color="#236bff"/><stop offset="1" stop-color="#00cef2"/></linearGradient><path d="m97.05 67.78h101.46c3.87 0 7 3.13 7 7s-3.13 7-7 7h-47.67c-19.85 23.22-31.84 53.36-31.84 86.31 0 73.4 59.5 132.9 132.9 132.9h154.85v24.52l54.07-40.82-54.07-40.82v24.52h-101.1c-3.87 0-7-3.13-7-7s3.13-7 7-7h47.23c19.82-23.24 31.91-53.45 31.91-86.31 0-73.4-59.5-132.9-132.9-132.9h-154.84v-24.52l-54.07 40.82 54.07 40.82zm120.76 26.85c2.05-.95 4.14-1.82 6.26-2.6v-11.93c0-3.86 3.14-7 7-7h41.67c3.86 0 7 3.14 7 7v11.93c2.12.78 4.21 1.64 6.26 2.6l8.44-8.44c2.73-2.73 7.17-2.73 9.9 0l29.47 29.47c2.73 2.73 2.73 7.17 0 9.9l-8.44 8.44c.95 2.05 1.82 4.14 2.6 6.26h11.93c3.86 0 7 3.14 7 7v41.67c0 3.86-3.14 7-7 7h-11.93c-.78 2.12-1.64 4.21-2.6 6.26l8.44 8.44c2.73 2.73 2.73 7.17 0 9.9l-29.47 29.47c-2.73 2.73-7.17 2.73-9.9 0l-8.44-8.44c-2.05.95-4.14 1.82-6.26 2.6v11.93c0 3.86-3.14 7-7 7h-41.67c-3.86 0-7-3.14-7-7v-11.93c-2.12-.78-4.21-1.64-6.26-2.6l-8.44 8.44c-2.73 2.73-7.17 2.73-9.9 0l-29.47-29.47c-2.73-2.73-2.73-7.17 0-9.9l8.44-8.44c-.95-2.05-1.82-4.14-2.6-6.26h-11.93c-3.86 0-7-3.14-7-7v-41.67c0-3.86 3.14-7 7-7h11.93c.78-2.12 1.64-4.21 2.6-6.26l-8.44-8.44c-2.73-2.73-2.73-7.17 0-9.9l29.47-29.47c2.73-2.73 7.17-2.73 9.9 0zm-35.69 25.98 11.2 11.2c-3.88 6.25-6.79 13.16-8.51 20.52h-15.83v31.53h15.83c1.73 7.37 4.63 14.28 8.51 20.52l-11.2 11.2 22.3 22.3 11.2-11.2c6.25 3.88 13.16 6.79 20.52 8.51v15.83h31.53v-15.83c7.37-1.73 14.28-4.63 20.52-8.51l11.2 11.2 22.3-22.3-11.2-11.2c3.88-6.25 6.79-13.16 8.51-20.52h15.83v-31.53h-15.83c-1.73-7.37-4.63-14.28-8.51-20.52l11.2-11.2-22.3-22.3-11.2 11.2c-6.25-3.88-13.16-6.79-20.52-8.51v-15.83h-31.53v15.83c-7.37 1.73-14.28 4.63-20.52 8.51l-11.2-11.2zm69.78 12.16c19.46 0 35.33 15.87 35.33 35.33s-15.87 35.33-35.33 35.33-35.33-15.87-35.33-35.33 15.87-35.33 35.33-35.33zm-159.42 113.94h-81.52v-47.01c0-22.42 18.34-40.77 40.77-40.77 22.42 0 40.77 18.34 40.77 40.77v47.01zm-63.75-113.94c0-12.66 10.33-22.99 22.99-22.99s22.99 10.33 22.99 22.99-10.33 22.99-22.99 22.99-22.99-10.33-22.99-22.99zm472.22 57.99h-81.53v-47.01c0-22.42 18.34-40.77 40.77-40.77 22.42 0 40.77 18.34 40.77 40.77v47.01zm-63.75-113.94c0-12.66 10.33-22.99 22.99-22.99s22.99 10.33 22.99 22.99-10.33 22.99-22.99 22.99-22.99-10.33-22.99-22.99zm63.82 299.63c-13.62 18.57-58.4 44.17-79.62 55.74-107.93 58.84-164.65 89.23-303.63 54.46-5.86-1.46-13.79-3.02-25.93-4.17v-123.92c52.97-14.18 72.31-5.22 102.27.61 29.25 5.69 62.23 6.4 91.93 6.67 23.11.22 33.57 9.09 34.53 22.11.52 7.06-1.43 12.91-5.22 17.75-3.13 3.7-7.78 6.71-13.42 9.14-11.66 5.03-27.18 7.58-42.78 8.73-21.39 1.58-42.84.51-55.16-.43-3.92-.29-7.34 2.65-7.63 6.57s2.65 7.34 6.57 7.63c12.74.98 34.94 2.08 57.22.43 17.01-1.26 34.12-4.12 47.4-9.85 14.26-6.15 24.31-15.54 26.11-29.58l115.14-46.24c25.77-10.3 52.93-3.49 52.21 24.35zm-425.18-23.01v132.4c0 6.62-5.42 12.04-12.04 12.04h-40.72c-6.62 0-12.04-5.42-12.04-12.04v-132.4c0-6.62 5.42-12.04 12.04-12.04h40.74c6.62 0 12.04 5.42 12.04 12.04z" fill="#ffffff" fill-rule="evenodd" data-original-color="linear-gradient" stroke="none" stroke-opacity="1" fill-opacity="1"/></g></svg>