<svg xmlns="http://www.w3.org/2000/svg" xmlns:xlink="http://www.w3.org/1999/xlink" viewBox="0 0 32 32" width="300" height="300" version="1.1" xmlns:svgjs="http://svgjs.dev/svgjs"><g width="100%" height="100%" transform="matrix(1,0,0,1,0,0)"><defs><linearGradient id="linear-gradient" x1="2" y1="16" x2="30" y2="16" gradientUnits="userSpaceOnUse"><stop offset="0" stop-color="#0fdcdd"/><stop offset="1" stop-color="#46a1e8"/></linearGradient></defs><g id="Ikon"><path d="M29,16a12.92526,12.92526,0,0,0-1.01239-5.02557,4.97683,4.97683,0,1,0-6.962-6.962,12.98033,12.98033,0,0,0-10.0512-.00006,4.97682,4.97682,0,1,0-6.962,6.962A12.95253,12.95253,0,0,0,7.11884,25.4671L4.293,28.293A.99989.99989,0,0,0,5.707,29.707l2.97278-2.97278a12.95768,12.95768,0,0,0,14.64032-.00006L26.293,29.707A.99989.99989,0,0,0,27.707,28.293l-2.826-2.826A12.95245,12.95245,0,0,0,29,16ZM25,4a2.98859,2.98859,0,0,1,2.04529,5.17834,13.07974,13.07974,0,0,0-4.22363-4.22363A2.97454,2.97454,0,0,1,25,4ZM4,7A2.98863,2.98863,0,0,1,9.17828,4.95459,13.078,13.078,0,0,0,4.95465,9.17822,2.97455,2.97455,0,0,1,4,7ZM5.05066,17H7a1,1,0,0,0,0-2H5.05066A11.01139,11.01139,0,0,1,15,5.05066V7a1,1,0,0,0,2,0V5.05066A11.01139,11.01139,0,0,1,26.94934,15H25a1,1,0,0,0,0,2h1.94934A11.01139,11.01139,0,0,1,17,26.94934V25a1,1,0,0,0-2,0v1.94934A11.01139,11.01139,0,0,1,5.05066,17ZM15,16.09082V10a1,1,0,0,1,2,0v5.542l2.53711,1.61426a1.0002,1.0002,0,0,1-1.07422,1.6875l-3-1.90918A1.00094,1.00094,0,0,1,15,16.09082Z" style="" fill="#1c4584" data-original-color="linear-gradient" stroke="none" stroke-opacity="1" fill-opacity="1"/></g></g></svg>