<svg id="Layer_1" enable-background="new 0 0 512 512" viewBox="0 0 512 512" xmlns="http://www.w3.org/2000/svg" width="300" height="300" version="1.1" xmlns:xlink="http://www.w3.org/1999/xlink" xmlns:svgjs="http://svgjs.dev/svgjs"><g width="100%" height="100%" transform="matrix(1,0,0,1,0,0)"><path clip-rule="evenodd" d="m27.57 116.07v123.87h154.89l36.05-85.99c1.05-2.5 3.65-3.99 6.34-3.62 2.69.36 4.8 2.49 5.15 5.18l19.77 154.44 28.95-69.05c.93-2.23 3.11-3.68 5.53-3.68h40.37v12h-36.38l-36.05 85.99c-.94 2.25-3.14 3.68-5.53 3.68-.27 0-.54-.02-.81-.06-2.69-.36-4.8-2.49-5.14-5.18l-19.78-154.44-28.94 69.05c-.94 2.23-3.12 3.68-5.54 3.68h-158.88v121.15h331.04c12.18-23.8 36.94-40.13 65.46-40.13 6.59 0 12.98.88 19.06 2.52v-25.59h-108.83c-5.15 0-9.33-4.18-9.33-9.33v-184.49zm263.7 309.48-26.09-40.46h-59.66l-26.08 40.46zm172.84-43.87-50.69 57.49c-1.14 1.29-2.78 2.03-4.5 2.03-.04 0-.09 0-.13 0-1.77-.04-3.43-.86-4.54-2.24l-20.4-25.34c-2.08-2.58-1.67-6.36.91-8.44 2.58-2.07 6.36-1.67 8.44.92l15.93 19.79 45.98-52.15c2.19-2.48 5.99-2.72 8.47-.53 2.49 2.19 2.72 5.98.53 8.47zm-40.04-36.72c33.91 0 61.5 27.59 61.5 61.5s-27.59 61.5-61.5 61.5c-33.92 0-61.5-27.59-61.5-61.5s27.58-61.5 61.5-61.5zm-49.81-100.61v14.45h-14.45v-14.45zm0-59v14.45h-14.45v-14.45zm0-44.55h-14.45v-14.45h14.45zm7.29-50.42h59.44v-18.24h-14.19c-3.31 0-6-2.69-6-6v-13.14h-19.06v13.14c0 3.31-2.69 6-6 6h-14.19zm-44.58-3.12h32.58v9.12c0 3.32 2.69 6 6 6h71.44c3.31 0 6-2.68 6-6v-9.12h32.58v210.63h-148.6zm64.72 99.32h67.04c3.31 0 6 2.68 6 6 0 3.31-2.69 6-6 6h-67.04c-3.32 0-6-2.69-6-6 0-3.32 2.68-6 6-6zm67.04 58.99c3.31 0 6 2.69 6 6 0 3.32-2.69 6-6 6h-67.04c-3.32 0-6-2.68-6-6 0-3.31 2.68-6 6-6zm-82.47-7.22v26.45c0 3.32-2.68 6-6 6h-26.45c-3.31 0-6-2.68-6-6v-26.45c0-3.32 2.69-6 6-6h26.45c3.32 0 6 2.68 6 6zm0-59v26.45c0 3.32-2.68 6-6 6h-26.45c-3.31 0-6-2.68-6-6v-26.45c0-3.31 2.69-6 6-6h26.45c3.32 0 6 2.69 6 6zm88.47-45.77c0 3.31-2.69 6-6 6h-67.04c-3.32 0-6-2.69-6-6 0-3.32 2.68-6 6-6h67.04c3.31 0 6 2.68 6 6zm-88.47-13.23v26.45c0 3.32-2.68 6-6 6h-26.45c-3.31 0-6-2.68-6-6v-26.45c0-3.31 2.69-6 6-6h26.45c3.32 0 6 2.69 6 6z" fill-rule="evenodd" fill="#ffffff" fill-opacity="1" data-original-color="#000000ff" stroke="none" stroke-opacity="1"/></g></svg>