<svg id="Layer_1" height="300" viewBox="0 0 512 512" width="300" xmlns="http://www.w3.org/2000/svg" xmlns:xlink="http://www.w3.org/1999/xlink" data-name="Layer 1" version="1.1" xmlns:svgjs="http://svgjs.dev/svgjs"><g width="100%" height="100%" transform="matrix(1,0,0,1,0,0)"><linearGradient id="GradientFill_1" gradientUnits="userSpaceOnUse" x1="255.976" x2="255.977" y1="504.975" y2="7.022"><stop offset="0" stop-color="#6c54a3"/><stop offset="1" stop-color="#00b1d2"/></linearGradient><path d="m267.889 274.93v-62.244a8.259 8.259 0 1 1 16.517 0v62.244h62.251a8.258 8.258 0 0 1 0 16.516h-62.251v62.245a8.259 8.259 0 0 1 -16.517 0v-62.245h-62.251a8.258 8.258 0 0 1 0-16.516zm-154.771-193.82a39.034 39.034 0 1 1 -39.041 39.049 39.088 39.088 0 0 1 39.041-39.049zm0 94.585a55.551 55.551 0 1 0 -55.564-55.536 55.6 55.6 0 0 0 55.564 55.541zm308.882 313.571h36.634a18.533 18.533 0 0 1 -36.634 0zm-18.688-33.455h74v11.409a5.53 5.53 0 0 1 -5.53 5.53h-62.93a5.537 5.537 0 0 1 -5.543-5.53v-11.409zm36.269-97.963a6.816 6.816 0 1 1 -6.786 6.823 6.822 6.822 0 0 1 6.786-6.823zm-70.917-4.522a71.443 71.443 0 0 0 18.8 48.371 58.452 58.452 0 0 1 15.766 37.591h29.018v-52.488a23.338 23.338 0 1 1 16.524-.7v53.193h28.628a58.423 58.423 0 0 1 15.777-37.593 71.653 71.653 0 1 0 -124.51-48.371zm-356.664-205.235 12.174 2.186a93.111 93.111 0 0 0 4.743 11.459l-7.051 10.158a14.56 14.56 0 0 0 1.665 18.653l19.169 19.181a14.6 14.6 0 0 0 18.669 1.672l10.158-7.066a92.535 92.535 0 0 0 11.452 4.766l2.186 12.166a14.621 14.621 0 0 0 14.38 12.016h3.979v214.264a8.254 8.254 0 0 0 8.258 8.265h275.023l-.121-16.523h-266.65v-206.007h6.636a14.6 14.6 0 0 0 14.374-12.016l2.193-12.166a93.994 93.994 0 0 0 11.459-4.765l10.151 7.066a14.6 14.6 0 0 0 18.667-1.672l19.186-19.181a14.6 14.6 0 0 0 1.664-18.653l-7.065-10.158a94.5 94.5 0 0 0 4.765-11.459l12.159-2.186a14.607 14.607 0 0 0 12.016-14.374v-6.636h206.02v138.469a76.514 76.514 0 0 1 16.524.014v-146.734a8.255 8.255 0 0 0 -8.265-8.259h-214.284v-3.986a14.609 14.609 0 0 0 -12.016-14.38l-12.159-2.179a94.037 94.037 0 0 0 -4.765-11.459l7.065-10.158a14.6 14.6 0 0 0 -1.664-18.66l-19.181-19.181a14.6 14.6 0 0 0 -18.667-1.668l-10.147 7.069a95.484 95.484 0 0 0 -11.463-4.769l-2.193-12.159a14.6 14.6 0 0 0 -14.374-12.019h-27.125a14.615 14.615 0 0 0 -14.38 12.016l-2.186 12.162a95.385 95.385 0 0 0 -11.452 4.772l-10.158-7.072a14.6 14.6 0 0 0 -18.669 1.668l-19.172 19.181a14.568 14.568 0 0 0 -1.665 18.66l7.051 10.158a92.218 92.218 0 0 0 -4.743 11.459l-12.171 2.179a14.609 14.609 0 0 0 -12.026 14.38v27.132a14.607 14.607 0 0 0 12.026 14.374z" fill="#ffffff" fill-rule="evenodd" data-original-color="GradientFill_1" stroke="none" stroke-opacity="1" fill-opacity="1"/></g></svg>