<svg xmlns="http://www.w3.org/2000/svg" viewBox="0 0 32 32" width="300" height="300" version="1.1" xmlns:xlink="http://www.w3.org/1999/xlink" xmlns:svgjs="http://svgjs.dev/svgjs"><g width="100%" height="100%" transform="matrix(1,0,0,1,0,0)"><g id="Layer_12" data-name="Layer 12"><path d="M13.12,8.88,15.24,11H28V6a2,2,0,0,0-2-2H6A2,2,0,0,0,4,6V8h7A3,3,0,0,1,13.12,8.88Z" fill="#ffffff" fill-opacity="1" data-original-color="#000000ff" stroke="none" stroke-opacity="1"/><path d="M28.67,19.26a5.4,5.4,0,0,0-1.21-.5l-.19-1.11a.76.76,0,0,0-.76-.65h-1a.76.76,0,0,0-.76.65l-.19,1.11a5.4,5.4,0,0,0-1.21.5l-.92-.65a.77.77,0,0,0-1,.08l-.72.72a.77.77,0,0,0-.08,1l.65.92a5.4,5.4,0,0,0-.5,1.21l-1.11.19a.76.76,0,0,0-.65.76v1a.78.78,0,0,0,.65.77l1.11.18a5.4,5.4,0,0,0,.5,1.21l-.65.92a.69.69,0,0,0-.13.41H28a2,2,0,0,0,2-2V18.48a.69.69,0,0,0-.41.13ZM26,26a2,2,0,1,1,2-2A2,2,0,0,1,26,26Z" fill="#ffffff" fill-opacity="1" data-original-color="#000000ff" stroke="none" stroke-opacity="1"/><path d="M28,13H14.41l-2.7-2.71A1,1,0,0,0,11,10H4a2,2,0,0,0-2,2V26a2,2,0,0,0,2,2H18.47v-.1a2.68,2.68,0,0,1,.17-.85A2.77,2.77,0,0,1,17,24.51v-1A2.77,2.77,0,0,1,18.65,21,2.74,2.74,0,0,1,19.28,18l.72-.72A2.74,2.74,0,0,1,23,16.65,2.77,2.77,0,0,1,25.49,15h1a2.77,2.77,0,0,1,2.54,1.65,2.68,2.68,0,0,1,.85-.17H30V15A2,2,0,0,0,28,13Z" fill="#ffffff" fill-opacity="1" data-original-color="#000000ff" stroke="none" stroke-opacity="1"/></g></g></svg>