<svg id="Layer_1" viewBox="0 0 512 512" xmlns="http://www.w3.org/2000/svg" xmlns:xlink="http://www.w3.org/1999/xlink" data-name="Layer 1" width="300" height="300" version="1.1" xmlns:svgjs="http://svgjs.dev/svgjs"><g width="100%" height="100%" transform="matrix(1,0,0,1,0,0)"><linearGradient id="linear-gradient" gradientUnits="userSpaceOnUse" x1="32.792" x2="479.208" y1="256" y2="256"><stop offset="0" stop-color="#0056e9"/><stop offset=".033" stop-color="#005de8"/><stop offset=".191" stop-color="#007be2"/><stop offset=".359" stop-color="#0092de"/><stop offset=".539" stop-color="#00a2da"/><stop offset=".739" stop-color="#00acd9"/><stop offset="1" stop-color="#00afd8"/></linearGradient><path d="m431.733 77.307a29.847 29.847 0 1 1 -29.833-29.832 29.88 29.88 0 0 1 29.833 29.832zm47.475 0a77.763 77.763 0 0 1 -.741 10.586l-8.303 2.107-6.82 1.72a63.748 63.748 0 0 1 -7.829 18.859l3.618 6.05 4.389 7.354a77.08 77.08 0 0 1 -14.975 14.975l-7.355-4.418-6.049-3.588a62.278 62.278 0 0 1 -18.86 7.8l-1.72 6.821-2.075 8.332a79.06 79.06 0 0 1 -21.173 0l-2.106-8.332-1.719-6.821a62.914 62.914 0 0 1 -18.86-7.8l-6.049 3.588-7.354 4.418a76.236 76.236 0 0 1 -14.976-14.975l4.389-7.354 3.618-6.05a62.925 62.925 0 0 1 -7.8-18.859l-6.819-1.72-8.333-2.106a75.987 75.987 0 0 1 0-21.172l8.333-2.076 6.82-1.72a62.305 62.305 0 0 1 7.8-18.86l-3.618-6.049-4.389-7.354a76.236 76.236 0 0 1 14.976-14.975l7.354 4.389 6.049 3.617a63.762 63.762 0 0 1 18.86-7.828l1.719-6.821 2.106-8.3a75.994 75.994 0 0 1 21.173 0l2.075 8.3 1.72 6.821a63.107 63.107 0 0 1 18.86 7.828l6.049-3.617 7.355-4.389a76.258 76.258 0 0 1 14.975 14.975l-4.389 7.354-3.618 6.049a63.11 63.11 0 0 1 7.829 18.86l6.82 1.72 8.3 2.076a78.1 78.1 0 0 1 .743 10.585zm-32.826 0a44.5 44.5 0 1 0 -44.481 44.51 44.53 44.53 0 0 0 44.481-44.51zm-173.982-3.736h-40.77v69.063h40.77zm-141.741 225.486v-208.317a17.224 17.224 0 0 1 17.2-17.169h69.123v76.388a7.322 7.322 0 0 0 7.325 7.324h55.422a7.3 7.3 0 0 0 7.325-7.324v-76.388h22.952c-.06 1.245-.06 2.491-.06 3.736a88.98 88.98 0 0 0 .86 12.573l1.334 9.82 16.665 4.181c.8 2.164 1.661 4.24 2.639 6.316l-8.837 14.768 5.961 7.887a92.592 92.592 0 0 0 17.792 17.763l7.888 5.99 14.767-8.837c1.424.682 2.877 1.3 4.359 1.9v149.4a17.249 17.249 0 0 1 -17.2 17.2h-208.316a17.249 17.249 0 0 1 -17.199-17.211zm26.54-48.928a7.322 7.322 0 0 0 7.325 7.324h40.6a7.325 7.325 0 0 0 0-14.649h-40.6a7.341 7.341 0 0 0 -7.324 7.325zm0 31.67a7.34 7.34 0 0 0 7.325 7.324h86.055a7.325 7.325 0 0 0 0-14.649h-86.055a7.322 7.322 0 0 0 -7.324 7.326zm-46.111 165.201a7.123 7.123 0 0 1 2.758 3.855l6.108 20.432 83-22.241-11.832-49.758a62.345 62.345 0 0 0 -5.664-16.043 28.5 28.5 0 0 0 -10.586-10.853l-64.26-37.749a19.9 19.9 0 0 0 -10.556-2.551h-.03a23.47 23.47 0 0 0 -10.5 2.847 5.6 5.6 0 0 1 -.8.593 19.637 19.637 0 0 0 -3.025 2.135 17.638 17.638 0 0 0 -2.431 2.521 15.67 15.67 0 0 0 -1.3 1.927 14.554 14.554 0 0 0 -1.927 10.053 13.819 13.819 0 0 0 5.189 8.392 18.514 18.514 0 0 0 1.779 1.186l43.324 25.443a7.3 7.3 0 1 1 -7.384 12.6l-43.326-25.441a34 34 0 0 1 -3.38-2.313 28.215 28.215 0 0 1 -10.557-17.318 28.954 28.954 0 0 1 3.677-19.987 37.045 37.045 0 0 1 2.4-3.528 32.95 32.95 0 0 1 4.448-4.626l.623-.534-21.586-102.068c-.03-.148-.059-.3-.089-.445a8.363 8.363 0 0 0 -4.211-4.8l-.326-.148a13.049 13.049 0 0 0 -8.777-.8 4.73 4.73 0 0 1 -.623.149c-9.341 2.7-8.718 11.061-8.155 18.77.089 1.216.178 2.432.267 4.211l7.354 142.214a25.709 25.709 0 0 0 5.278 14.412c3.351 4.537 8.215 8.688 13.878 12.751l51.272 36.682zm102.839 14.264c-.178.029-.326.089-.5.118l-.089.03-104.415 27.962 6.077 22.626 112.654-30.158-6.079-22.655zm76.684.118c-.148-.029-.326-.089-.474-.118l-7.681-2.076-6.049 22.655 112.654 30.157 6.05-22.626-104.411-27.963zm171.9-243.545a13.192 13.192 0 0 0 -9.133.741 8.439 8.439 0 0 0 -4.566 5.219l-21.586 102.186a7.677 7.677 0 0 1 .741.652 33.4 33.4 0 0 1 4.3 4.567 37.233 37.233 0 0 1 2.4 3.528 29.138 29.138 0 0 1 3.706 19.987 28.255 28.255 0 0 1 -10.586 17.318 34.017 34.017 0 0 1 -3.381 2.313l-43.324 25.443a7.3 7.3 0 1 1 -7.383-12.6l43.324-25.443a18.766 18.766 0 0 0 1.779-1.186 14.006 14.006 0 0 0 5.219-8.392 14.72 14.72 0 0 0 -1.928-10.053 15.951 15.951 0 0 0 -1.334-1.927 18.09 18.09 0 0 0 -2.461-2.58 19.928 19.928 0 0 0 -3-2.194 23.266 23.266 0 0 0 -11.3-3.322h-.03a19.9 19.9 0 0 0 -10.556 2.551l-64.23 37.749a28.077 28.077 0 0 0 -10.582 10.85c-2.609 4.626-4.27 10.112-5.693 16.043l-11.832 49.758 83 22.241 6.108-20.432a7.123 7.123 0 0 1 2.763-3.854v-.029l51.241-36.682c5.694-4.063 10.528-8.214 13.878-12.751a25.954 25.954 0 0 0 5.308-14.412l7.327-142.22c.089-1.779.178-3 .267-4.211.561-7.769 1.214-16.25-8.454-18.859z" fill="#ffffff" data-original-color="linear-gradient" stroke="none" stroke-opacity="1" fill-opacity="1"/></g></svg>